<svg xmlns="http://www.w3.org/2000/svg" xml:space="preserve" width="2000" height="535" data-id="lg_gMRzAH2PzHYlyQnuJx" data-version="1" viewBox="0 0 2000 535"><g data-padding="20"><g transform="translate(10 11.732)scale(.95614)"><rect width="321.792" height="315.946" x="289.026" y="-242.966" rx="0" ry="0" transform="translate(400 342.75)scale(1.41)"/><path fill="#ccdfff" d="m1101.847 130.71-37.267-31.392V53.91l37.267 31.258 39.57-31.258 39.59 31.258 37.173-31.258v45.485l-37.171 31.315-39.59-31.258Zm0 76.8-37.267-31.392V130.71l37.267 31.258 39.57-31.258 39.59 31.258 37.173-31.258v45.485l-37.171 31.315-39.59-31.258Z"/><path fill="#f6f5ef" d="m927.42 60.04 20.139-36.71 4.529 41.62 32.662-26.212-11.74 40.201 40.202-11.739-26.21 32.663 41.618 4.528-36.71 20.14 36.71 20.138L987 149.2l26.212 32.661-40.201-11.74 11.739 40.202-32.663-26.21-4.528 41.618-20.14-36.71-20.138 36.71-4.53-41.618-32.661 26.21 11.74-40.2-40.202 11.738 26.21-32.662-41.618-4.53 36.71-20.138-36.71-20.139 41.618-4.528-26.21-32.663 40.2 11.74-11.738-40.202 32.662 26.21 4.53-41.618Z"/><path fill="#ccdfff" d="m887.827 323.18-37.267-31.392V246.38l37.267 31.258 39.57-31.258 39.59 31.258 37.173-31.258v45.485l-37.171 31.315-39.59-31.258Zm0 76.8-37.267-31.392V323.18l37.267 31.258 39.57-31.258 39.59 31.258 37.173-31.258v45.485l-37.171 31.315-39.59-31.258Z"/><path fill="#f6f5ef" d="m1141.38 258.69 20.139-36.71 4.529 41.618 32.662-26.21-11.74 40.201 40.202-11.739-26.21 32.662 41.618 4.53-36.71 20.138 36.71 20.14-41.62 4.528 26.212 32.662-40.201-11.74 11.739 40.202-32.663-26.21-4.528 41.618-20.14-36.71-20.138 36.71-4.53-41.619-32.661 26.211 11.74-40.2-40.202 11.738 26.21-32.663-41.618-4.528 36.71-20.139-36.71-20.139 41.618-4.529-26.21-32.662 40.2 11.74-11.738-40.202 32.662 26.21 4.53-41.618Z"/><rect width="433.113" height="67.883" x="417.833" y="-153.782" fill="none" rx="0" ry="0" transform="translate(406.68 620.73)"/><path d="M841.46 502.51v6.25q22.83-.12 33.1-.66-.42 2.46-.51 5.07-.09 2.62-.09 6.58h-46.68q.48-11.65.48-21.8 0-10.16-.48-21.81h46.68v10.87h-32.5v5.77q2.88.06 8.53.06 9.55 0 19.76-.36v10.33q-10.21-.36-19.76-.36-5.65 0-8.53.06m86.15-11.83q0 5.22-2.56 8.83-2.55 3.6-8.74 5.22.72.97 1.02 1.51l9.73 13.51h-16.34q-2.64-4.92-8.35-13.93h-8.83v13.93h-14.17q.48-11.65.48-21.8 0-10.16-.48-21.81h14.17v.06h12.32q12.13 0 16.94 3.9 4.81 3.91 4.81 10.58m-25.96-2.95h-8.11v6.85h8.11q5.11 0 7.72-.33 2.62-.33 3.64-1.05t1.02-2.1q0-1.32-.96-2.04-.96-.73-3.61-1.03-2.64-.3-7.81-.3m84.23 32.02h-15.56q-1.14-3.42-3.07-8.59h-19.16l-3 8.59h-15.08l16.82-43.61h22.11Zm-34.37-17.96h12.32q-2.28-6.31-4.69-12.61l-1.44-3.91q-2.1 5.47-6.19 16.52m73.23-25.59h14.72q-.42 10.15-.42 21.75 0 11.65.42 21.8h-21.5l-14.54-32.8 1.08 32.8h-15.44q.48-11.65.48-21.8 0-10.1-.48-21.75h22.11l14.6 33.7Zm72.99 43.55h-15.55q-1.15-3.42-3.07-8.59h-19.16l-3.01 8.59h-15.07l16.82-43.61h22.1Zm-34.36-17.96h12.32q-2.29-6.31-4.69-12.61l-1.44-3.91q-2.1 5.47-6.19 16.52m89.15-25.65v12.61q-9.43-.3-18.32-.36v31.36h-15.02v-31.36q-8.95.06-18.26.36v-12.61Zm40.37 22.77v-22.83h14.9v23.91q-.12 8.83-6.04 14.6-5.92 5.76-19.91 5.76-14.18 0-19.41-5.49-5.22-5.5-5.1-14.45v-24.33h14.9v23.37q0 2.64.39 4.29.39 1.66 2.52 3.1t6.88 1.44q5.16 0 7.57-1.47 2.4-1.47 2.85-3.28.45-1.8.45-4.62m19.71 15.68q2.04-3.07 3.39-5.71t2.61-6.13q4.27 2.46 9.91 3.85 5.65 1.38 10.52 1.38 4.98 0 7.03-.87 2.04-.87 2.04-1.9 0-3.66-11.18-3.66-12.25 0-17.78-2.55-5.52-2.56-5.52-8.26 0-8.11 6.72-11.96 6.73-3.84 17.49-3.84 6.24 0 12.82 1.59t11.87 4.36q-1.75 3.96-3.67 9.67-.36 1.2-.6 1.8-3.06-2.46-9.25-4.12-6.19-1.65-10.93-1.65-5.71 0-7.69.75-1.99.75-1.99 2.2 0 1.44 2.74 2.31 2.73.87 7.9.87 12.73 0 18.5 2.91 5.77 2.92 5.77 8.92 0 8.41-6.13 12.11-6.13 3.69-18.56 3.69-6.67 0-13.58-1.47t-12.43-4.29"/></g><path fill="transparent" stroke="transparent" d="M772 0h456v535H772z"/></g></svg>